# xmcd
#
# Track frame offsets: 
#        150
#        19196
#        37411
#        56162
#        75330
#        92047
#        110747
#        131368
#        150661
#        167034
#        185197
#        208283
#        232793
#        255472
#        275151
#        292897
#        315324
#        334490
#
# Disc length: 4672 seconds
#
# Revision: 4
# Processed by: cddbd v1.5.2PL0 Copyright (c) Steve Scherf et al.
# Submitted via: ExactAudioCopyFreeDBPlugin 1.0
#
DISCID=07123e12
DTITLE=Various Artist - Motown: The Complete No. 1's [CD9)
DYEAR=2008
DGENRE=R&B
TTITLE0=Stevie Wonder - Part-Time Lover
TTITLE1=Lionel Richie - Say You, Say Me
TTITLE2=Stevie Wonder - Go Home
TTITLE3=Val Young - If You Should Ever Be Lonely
TTITLE4=Stevie Wonder - Overjoyed
TTITLE5=El DeBarge - Who's Johnny
TTITLE6=Lionel Richie - Dancing on the Ceiling
TTITLE7=Lionel Richie - Love Will Conquer All
TTITLE8=Lionel Richie - Ballerina Girl
TTITLE9=Smokey Robinson - Just to See Her
TTITLE10=Georgio - Tina Cherry
TTITLE11=Stevie Wonder - Skeletons
TTITLE12=Stevie Wonder - You Will Know
TTITLE13=The Boys - Dial My Heart
TTITLE14=The Boys - Lucky Charm
TTITLE15=Today - Girl I Got My Eyes on You
TTITLE16=Stacy Lattisaw with Johnny Gill - Where Do We Go From Here
TTITLE17=The Guinn Family - Dreamin'
EXTD=
EXTT0=
EXTT1=
EXTT2=
EXTT3=
EXTT4=
EXTT5=
EXTT6=
EXTT7=
EXTT8=
EXTT9=
EXTT10=
EXTT11=
EXTT12=
EXTT13=
EXTT14=
EXTT15=
EXTT16=
EXTT17=
PLAYORDER=
